<svg xmlns="http://www.w3.org/2000/svg" xmlns:xlink="http://www.w3.org/1999/xlink" width="2267.716" height="1115.127" viewBox="0 0 2267.716 1115.127">
  <defs>
    <clipPath id="clip-Artboard_2">
      <rect width="2267.716" height="1115.127"/>
    </clipPath>
  </defs>
  <g id="Artboard_2" data-name="Artboard 2" clip-path="url(#clip-Artboard_2)">
    <rect width="2267.716" height="1115.127"/>
    <g id="Group_1" data-name="Group 1">
      <path id="Path_1" data-name="Path 1" d="M0,0H2267.716V992.127H0V0Z" fill-rule="evenodd"/>
      <path id="Path_2" data-name="Path 2" d="M272.675,416.584a47.644,47.644,0,0,1,8,8.965,235.479,235.479,0,0,0,39.663,47.9,120.689,120.689,0,0,1,17.734,20.1c5.745,8.157,10.01,13.976,11.158,20.968,3.033,18.463,4.383,19.912,30.01,31.959,14.651,6.884,25.118,8.564,40.248,13.7,8.87,3.01,17.793,5.5,26.736,7.633,30.627,7.3,63.3,6.551,94.782,13.424C568.82,587.3,585.071,592.346,615.421,605c5.678,2.369,14.2,2.7,20.514,2.232,16.379-4.55,19.064-5.035,33.3-14.339,13.908-9.094,25.225-16,40.988-22.145a252.809,252.809,0,0,1,42.591-11.83c14.784-2.7,26.911-1.557,41.477-3.092,20.6-18.1,41.191-36.092,65.74-48.511,22.738-11.5,51.092-20.794,76.373-22.678a189.853,189.853,0,0,1,48.479,3.079,337.445,337.445,0,0,1,36.167-24.449c22.754-13.481,34.653-11.469,48.584-38.373,4.935-9.531,6.1-17.622,7.458-27.056,4.567-3.163,11.261-8.418,14.941-26.417,1.36-6.65,12.1-8.369,20.421-13.333,5.485-3.272,6.267-8.023,9.9-7.06,3.268.867,6.356,2.916,8.915,8.159,2.6,5.326,13.6,4.257,17.349-.665,3.718-4.879,6.761-6.975,12.435-6.174,9.712,1.37,15.264,15.475,19.143,21.109,4.66,6.765,9.465,12.93,17.512,3.25-.9,12.233-.869,27.345,2.2,38.634,8.061,29.676,22.159,32.49,42.6,41.495,14.964,6.591,37.978,20.306,48.369,32.252,19.311-6.514,40.983-6.453,65.2-1.359,49.849,10.482,86.011,31.779,119.769,69.144a177.965,177.965,0,0,1,41.917,4.994c19.335,4.529,46.144,13.61,63.346,24,13.537,8.176,24.809,22.295,38.545,27.825,8.471,3.412,20.175,2.906,28.4-.965a213.7,213.7,0,0,1,44.566-16.821c27.06-7.162,58.213-8.924,88.411-11.664,31.616-2.869,54.1-7.89,84.315-15.781,13.339-3.484,28.734-5.5,39.5-14.394,11.126-9.2,4.8-10.327,8.1-22.4,2.456-9,10.992-22.088,16.808-29.355,9.8-12.237,19.291-20.628,27.513-31.214,9.022-11.617,23-44.247,35.35-45.77,3.236-.4,6.242.261,6.572,2.431.405,2.669-2.1,2.573-4.125,3.761-10.952,6.421-17.124,25.505-23.938,36.775-9.724,16.082-21.849,31.331-34.083,45.987-20.025,23.983-2.7,33.641-19.5,47.106-12.948,10.375-47.285,22.4-63.693,24.449-26.342,3.281-29.289,6.875-37.793,11.09-19.13,9.484-41.356,10.127-62.2,11.023-27.1,1.168-38.026,1.948-64.261,9.94-18.624,5.673-33.951,13.234-54.024,12.554-15.088-.511-28.455-3.8-39.7-14.08-6.318-5.775-11.181-11.545-14.344-9.687-5.558,3.261-20.078-3.026-27.215-4.028-5.47-.767-18.591-1.4-23.837,2.02-9.808,6.381,19.789,24.008,5.377,21.959-14.939-2.123-28.718-11.016-46.142-8.824-14.644,1.465-37.565,8.963-51.1,1.248-4.28-2.44-9.274-8.272-2.441-11.3,4.725-2.1,13.466-2.107,23.628-2.709,19.38-.955,29.032-11.351,10.893-24.7-8.3-6.1-20.661-6.729-26.072-15.565-4.857-7.931-31.466-35.242-33.138-5.6-.423,7.5-4.485,10.426-11.5,10.043-6.836-.371-12.482-5.561-16.081-6.633-2.563-.764-4.09.555-4.269,7.186-.274,10.154-8.031,6.234-18.235,7.427-14.684,1.719-30.326,8.926-45.28,9.436-6.839.232-19.3-1.629-16.966,1.861,2.949,4.424.262,6.088-2.11,7.424-5.053,2.842-2.422,5.814,1.081,9.193,3.014,2.912,7.459,6.508,12.064,11.692,5.724,6.445,12.068,12.9,17.04,17.926,11.245,11.378,9.278,18.007.469,23.626a56.717,56.717,0,0,0-9.343,7.846c-9.342,9.67-19.327,2.485-22.955-12.072-2.666-10.7-16.672-3.324-26.755-11.568-7.612-6.223-33.006-20.276-41.684-12.791-6.038,5.21,2.964,29.644-19.617,24.322-11.394-2.686-17.056-.315-21.481,4.707-4.774,5.418-8.11,13.922-15.647,22.5-7.8,8.883-12.932,11.746-24.121,13.488-7.471,1.16-7.911-1.144-7.36-5.088.409-2.933,1.369-6.775.393-10.773-1.217-4.989-5.789-2.459-7.443.777-2.444,4.779-.932,10.947-2.589,15.567-3.533,9.855-9.956,13.683-18.777,7.025-10.9-8.23-11.338-25.82-19.91-37.148a64.1,64.1,0,0,1-12.771-15.905c-2.875-4.834-9.475-17.441-16.682-14.894-3.724,1.312-4.722,5.922-8.342,6.47-2.992.454-3.979-5.455-10.505-5.1-7.724,1.461-15.719,10.164-23.455,8.439-14.265-3.177-22.861-.216-28.89-11.423-2.717-5.051-4.772-9.87-4.283-15.106,1.109-11.867,16.522-20.6-9.193-27.889-34.46-9.759-67.374,7.352-87.517.11-8.949-3.217-15.016-8.762-15.99-22.67-14.822,2.1-24.082,7.844-36.582,10.73-8.128,1.877-31.181-2.17-33.248,3.846-2.4,6.979,15.512,17.178,20.446,19.328,14.658,6.387,32.918,10.623,32.484,21.961-.193,5.031-14.244,9.434-25.168,9.773-28.182.878-42.291,11.211-59.254,5.026-9.59-3.5-14.833-5.551-25.247-5.94-18.854-.705-28.437,4.6-40.478,9.9-10.32,4.543-28.708,10.7-39.794,10.035-11.59-.693-2.963-4.008-7.544-9.615-3.728-4.563-16.887-4.209-29.49-4.145-12.938.065-17.131-6.3-29.663-8.543-9.239-1.652-20.281-1.927-26.066-6.519-15.123-12-37.155-13.135-55.092-17.34-6.819-1.6-13.048-3.643-18.077-6.9-9.78-6.328-24.823-5.295-40.328-8.492-10.3-2.123-19.5-9.615-30.321-12.133-15.314-3.56-32.7-8.66-47.758-15.437-4.508-2.029-8.837-4.426-13.139-6.869-10.062-5.711-18.728-8.207-25.328-18.055-9.494-14.172-4.643-18.279-8.252-25.642-3.978-8.122-24.113-33.624-30.337-40.2-4.963-5.248-9.344-9.709-13.052-14.67-11.157-14.922-11.81-21.031-27.326-36.751-1.183-1.2-4.135-2.919-8.357-6.817-.578-.534.225-2.68,1.347-3.274,4.839-2.57,12.193,3.092,15.53,6.155Zm769.032-64.553c-4.39-9.513-2.2-15.186-3.293-22.779a.88.88,0,0,0,1.042-.61c1.176-4.813.653-16.257,1.428-24.637a1.151,1.151,0,0,0,1.638-1.17c-.307-4.591-.548-11.257,1.245-15.353,2.314-5.291,2.329-12.328,4.527-18.6q5.286-9.656,10.574-19.309c2.279-4.169,3.993-6.31,3.422-10.056,3.294-.778,7.068-.73,9.538,1.51.087-1.488,1.81-2.373,1.623-5.641-.121-2.138-.732-5.022,3.1-5.4,4.48,2.541,10.933,5.87,12.09-2.4,3.178-.824,7.8.343,10.908.068.639-2.012,2.79-4.575,1.989-6.793,3.956-1.074,7.965.518,12.128-1.105,2.1-1.372,4.086-3.971,7.083-4.383,3.384,4.781,8,1.738,11.663,1.646,3.385.458,7.526-.252,6.724-2.47,6.609.435,8.073,10.68,15.368,8.783,4.939-1.464,8.439-8.143,14.819-4.392-3.719,1.261-6.022,6.128-.273,7.41,8.141,1.006,19.028.023,24.425,3.019-3.225,3.545,10.222,9.217,14.681,15.3-3.947,4.156,11.179,30.8,13.928,29.227,4.02,6.271,6.46,22.613,7.421,29.795,1.2,8.995,1.536,13.943,3.356,20.784,2.4,9.027,2.68,12.322-.691,17.413.045-8.714-5.123-12.076-7.685-18.113-2.33.315-4.141.911-5.161,2.168-2.428,3-4.886,2.566-7.6,2.223,2.972-2.962,5.111-7.524,4.8-10.978-2.105-1.281-3.591-2.766-5.833-1.646-1.36-9.179,3.064-16.54-1.482-26.529-1.192,3.471-4.028,4.1-6.064,4.849-1.137-6.235-10.194-14.631-14.751-19.76-2.038,1.11-4,1.738-4.254,4.528-4.4-4.085-8.923-4.644-9.246-10.758,4.025,4.688,15.17-1,21.047,4.308.618-4.459-3.842-6.036-5.489-8.232-.777,2.722-4.71,2.287-7,3.02.687-2.014.137-3.889-5.284-6.313.072,4.362-22.535,6.083-25.865-6.312,3.022,2.18,6.123,2.395,9.331,0,2.245.3,4.548.469,5.488,3.567,3.762-7.989-10.015-8.493-15.437-14.271-3.246,1.19-3.408,4.025-5.419,5.489a5.957,5.957,0,0,0-8.508,1.921c-5.567-2.441-19.222,2.071-21.954,8.028-3.431,1.144-5.078-1.418-10.155-.343,1.857-6.226,9.355-5.738,3.087-12.143-2.309,4.164-6.215,4.753-8.627,5.766-5.044,2.119,1.315,10.188,3.344,14.061-5.186-.27-6.794,3.866-9.331,6.861-1.15-3.962,1.882-7.864,1.585-9.58-.362-2.088-8.669-1.15-10.916,4.366-4.776-1.248-7.488-4.274-3.91-8.644,5.156.687,11.016.273,12.144-2.883a10.963,10.963,0,0,1-9.606-1.1c-8.894-3.831-10.446,3.159-10.7,9.6,1.464,2.288,5.125,5.261,5.078,9.057-7.157-.41-6.911,10.821-13.722,15.161.115-4.665-3.477-5.282-5.626-4.459,3.78,3.372,1.32,15.385-2.745,19.761-2.026-2.285-5.27-.6-6.514,1.665-2.186,3.977.246,12.1.82,15.212-3.573-1.325-2.048,7.985-3.555,13.758-1.575,6.03-3.888,5.762-4.748,16.842Zm96.889-98.984c3.091,1.567,5.962,2.139,8.506,1.236a7.872,7.872,0,0,1,.549,7.547c-.722-2.584-3.986-3.726-10.016-3.294-1.661-2.489-.945-4.187.961-5.489Zm43.363,27.1c5.4,2.409,1.262,1.4,5.661,6.482-5.088-.4-4.037-4.607-5.661-6.482Zm-63.546-40.492c1.418,3.476,5.306,1.737,7.959,2.607,2.188-1.462,1.7-3.445.568-5.835-1.344-2.846-3.6-6.271-3.313-10.083,7.171,3.377,11.585,4.489,11.527,1.921,3.667.148,5.664,3.238,6.586,8.234q.482,2.127.961,4.254c-2.466-.867-4.581-.969-5.214,2.195-4.2-2.66-5.671-.235-9.125,5.318-.56-3.726-14.76-2.7-9.949-8.611Zm115.381,125.507c4.056-4.913,9.7-5.789,9.473-9.829-.3-5.435-6.891-5.015-9.082-2.62-3.238,3.538-3.553,8.056-8.586,10.005-6.681,2.586-10.242-11.923-11.322-8.714-.991,2.946-1.814,8.687.736,10.287a12.363,12.363,0,0,1,5.783,8.3c5.733,5.734,8.672,4.794,8.825.256.12-3.565,4.042-7.532,4.173-7.69ZM1041.018,384.2c-.73-2.867-.4-8.088-1.986-12.443-2.081-5.716-.663-7-2.643-9.4-4.058-4.915-9.912-7.318-9.686-11.359.305-5.435,7.1-3.485,9.3-1.089,3.238,3.538,3.758,7.588,8.586,10,2.977,1.491,6.459-1.366,8.989.891a2.144,2.144,0,0,1,.481,2.675c-4.208,1.327-4.575,4.025-6.862,6.038-1.28,1.281-3.727,2.012-5.008,3.293-1.218,1.328-.176,6.373.495,9.659.789,3.87-1.194,4.254-1.661,1.73Zm48.676,360.708c-8.668-7.019-28.6-5.928-34.549,7.369-1.18,2.639-2.3,5.254-2.062,7.338.647,5.752,18.2,1.955,27.195,10.563,4.489,4.295,7.441,11.213,12.79,23.127,9.748,21.711,23.184,9.476,24.282-1.451,3.477-34.571-5.418-28.938-27.656-46.946Zm83.6,31.739c-.5-12.928,1.775-16.075,7.912-21.479,7.626-6.717,16.118-11.346,23.785-11.221,12.944.215,22.613,18.965,13.454,27.62-14.525,13.726-22.575-1.719-35.589,16.148-3.7,5.076-8.934,5.225-9.562-11.068ZM1023.055,555.5c10.985.926,18.75-2.691,31.471,3.49,4.55,2.209,26.26,4.479,25.586-2.834-.289-3.146-3.105-7.4-8.383-9.133-3.859-1.263-8.45-.289-13.4-.968a50.6,50.6,0,0,0-8.713-.743c-7.928.551-5.359,6.69-16.339,5.875-3.222-.238-11.665-3.408-13.683-.64-2.055,2.814.814,4.73,3.46,4.953Zm117.524,113.117c-1.145-8.494-2.377-10.279-.543-14.279,2.391-5.211,2.373-7.359,1.672-8.961-3.861-8.826-2.859-10.16,1.528-18.824,1.954-3.863,4.2-6.731,6.63-7.455,2.017-.6,2.215.72-.6,6.351-1.782,3.563-4.4,7.2-3.662,11.254,1.5,8.207,5.488,7.166,6.5,21.9a15.7,15.7,0,0,0-6.567,2.921,16.251,16.251,0,0,0-4.958,7.094Zm5.83-58.592c-8.805,1.485-14.1-3.136-13.465-9.068.638-5.955,3.262-4.484,7.275-6.971,1.884-1.168,3.068-2.859,4.678-2.949,1.381-.076,2.793,1.393,4.256,3.9,2.684,4.213,9.712-3.006,12.318,1.965,6.223,11.878-8.908,12.654-15.062,13.128Zm133.458-52.545c-5.816.491-10.72,9.465-16.555,10.5-9.533,1.689-21.286-5.9-31.2,1.505-5.651,4.223-15.362,10.159-25.133-7.521-3.506-6.342-5.546-14.926,1.817-17.34,5.385-1.762,15.284-.168,21.989,1.736,17.613,5,20.757,6.334,35.5,5.241,4.493-.332,15.724-2.834,18.54,1.027,2.866,3.926-1.278,4.543-4.965,4.853Zm-294.36,86.446c.982,1.828.242,3.588,1.122,5.412a14.205,14.205,0,0,1,4.481,5.029c1.091,2.451.536,6.551-1.6,8.285-3.709,3.012-10.3-.984-14.223-2.207-4.783-1.49-9.086-2.187-11.576-6.3-1.177-3.432-1.239-6.539.013-9.264,3.845-8.363,18.249-7.529,21.78-.951ZM228.366,444.182c-.256-6.561,4.465-6.8,9.037-4.35,3.417,1.828,6.456,4.863,9.488,7.919,4.068-2.227,7.836.734,10.117,4.007,2.2,3.158,3.4,6.923,5.526,10.126,7.417,1.811,8.181,9.945,12.487,14,.408,3.052.326,5.546-.549,7.135-8.08,2.469-15.156.785-21.955-2.057-5.862-7.97-12.451-15.087-15.763-24.287-1.719-4.776-4.055-9.2-8.388-12.489Zm1755.575,52.064c4.951,15.178,30.145,1.332,38.439-4.885a112.047,112.047,0,0,0,14.891-13.853c4.7-5.1,10.146-11.1,13.153-17.111,2.378-4.665,2.07-9.143,7.811-13.261,2.551-4.689-6.319-9.621-13.235.7-3.75,5.594-3.558,11.775-9.6,16.881.066-5.082,1.708-8.463,4.892-13-.655-7.9-13.3-3.412-15.754,4.332-1.045,3.294-1.586,8.214-2.86,11.274-7.886,10.251-7.944,9.027-13.721,22.092-8.118,7.712-18.66,2.183-24.014,6.827Z" fill="#4c4c4c" fill-rule="evenodd"/>
      <path id="Path_3" data-name="Path 3" d="M1109.289,537.326c11.132-.414,33.134-9.035,45.08-6.295,7.657-9.312-1.255-8.841-10.93-11.846-7.493-2.328-15.2-5.425-15.2-12.386,0-4.453,1.485-10.7,5.4-14.076,7.529-6.5,17.914-1.586,29.935,3.038,10.267,3.95,16.193-12.256,17.718-10.3,4.132,5.3-11.334,19.662-3.172,22.664,8.615,7.045,29.308-4.2,32.836,9.963,5.227,2.668,12.373,1.072,17.873.281,8.858-1.273,15.642,6.66,31.189,2.541,9.331-2.471-2.593-14.709,15.051-5.514,13.381,6.969,30.652,7.116,38.181,10.385,13.037,5.66,17.5,26.209,46.587,17.158,2.631-.82-2.551-3.939-9.378-11.041-7.222-7.509-6.624-10.377,4.794-9.283,8.187.787,5.938-3.189-.642-4.883-4.575-1.177-8.224-4.627-8.124-6.414.36-6.385,45.689,10.278,52.609,7.955,5.239-1.759,28.217,14.387,33.015,15.33,19.387,3.813,35.465,26.024,50.507,37.09,20.423-3.429,42.8,1.61,61.394,8.442,28.505,10.468,33.872,11.5,54.682,30.379,10.533,9.625,21.3,14.158,35.228,14.629,19.01.644,37.272-10.131,54.989-15.53,40.591-12.369,70.552-5.552,93.3-15.769,9.958-4.934,28.309-5.131,45.757-6.983,24.033-2.55,69.65-14.9,86.94-28.758,3.367-2.7,5.715-5.484,6.481-9.8.965-5.778-3.071-7.287-2.2-12.215,1.5-8.486,9.155-17.951,14.623-24.5,12.054-14.438,23.966-29.347,33.713-45.466,3.471-5.741,13.014-27.557,23.178-35.487,1.213-.946,3.55-2.564.647-2.125-8.614,1.308-14.028,14.451-14.919,15.933-4.4,7.32-11.355,21.184-16.539,27.858-8.509,10.956-20.209,21.749-28.922,32.635-5.548,6.931-11.65,19.306-13.977,27.836a25.746,25.746,0,0,0-.95,6.693,45.344,45.344,0,0,1-.127,5.746c-.721,5.236-4.513,8.881-8.4,12.094-11.588,9.578-27.742,9.49-41.8,13.162-13.556,3.541-26.468,8.986-40.217,11.7-14.62,2.883-32.274,2.717-47.111,4.063-38.332,3.48-93.341,9.588-127.977,27.748-18.564,9.164-32.423,4.584-47.232-7.165-17.772-14.1-29.331-26.564-71.967-38.064-20.659-5.572-42.6-9.412-56.4-9.3-40.243-48.81-126.052-87.864-185.539-67.8-26.01-29.891-49.269-27.721-73.52-44.617-15.418-10.739-14.473-25.142-34.084-53.617-3.678-5.341-9.019-18.308-16.271-19.332-7.322-1.032-9.276,11.648-6.633,18.413,2.043,5.233,4.541,11.522-.54,24.806-22.741-25.787-39.158-3.582-51.511,1.035-6.649,2.482-6.728.008-7.485-5.438-1.8-12.982,1.127-18.594-3.3-18.067-6.632.792-14.589,14.885-23.81,32.692-5.53,10.682-10.825,16.709-21.211,23.054-21.759,13.292-40.831,18.2-66.027,39.956l-1.51,1.183-1.884-.365c-15.263-2.966-29.281-5.588-44.779-4.433-49.518,3.689-95.983,30.721-132.566,63.621-5.217,4.692-7.544,6.319-10.861,7.2-3.654.973-10.993,1.481-39.722,5.323a234.9,234.9,0,0,0-41.819,11.611c-14.836,5.783-26.963,13.082-40.216,21.746-5.251,3.434-10.64,6.879-16.457,9.285-5.714,2.366-12.055,3.932-18.013,5.586l-.4.112-.414.031c-6.929.512-16,.141-22.442-2.545a434.776,434.776,0,0,0-43.139-15.869c-10.078-3-20.288-5.438-30.558-7.682-31.267-6.826-61.649-6.7-92.8-14.127-9.147-2.181-17.521-4.306-26.426-7.33-13.888-4.711-28.876-8.646-42.331-14.973-8.373-3.933-21.376-8.958-26.577-16.966-3.275-5.041-3.323-9.807-4.282-15.643-1.107-6.74-7.006-14.857-10.858-20.326a150.272,150.272,0,0,0-16.837-20.013c-7.375-7.462-14.609-13.8-23.091-24.157-8.754-10.693-15.663-23.347-25.7-32.557-.56-.516-4.341-4.941-8-5.209-.345-.14.605,2.439,3.386,3.99,8.013,5.439,13.07,12.064,17.469,20.582,3.527,5.531,6.287,11.705,10.232,16.982,3.8,5.082,8.932,8.869,13.288,13.475,6.468,6.839,26.863,32.68,31.058,41.243a19.917,19.917,0,0,1,1.913,6.791,60.174,60.174,0,0,0,.864,7.517,34.4,34.4,0,0,0,5.192,10.844c5.953,8.883,15.023,11.694,23.911,16.741,4.184,2.373,8.4,4.714,12.791,6.689,14.836,6.676,31.15,11.5,46.985,15.178,19.645,4.572,33.577,8.148,56.906,11.291,12.515,1.687,33.9,4.078,53.763,8.031,43.267,8.613,44.156,25.914,92.3,25.672,17.251-.422,10-.629,52.654-21.442,15.431-6.791,38.477-6.254,56.323-5.588,8.626.325,25.3,3.749,18.861,7.926-5.665,3.672-3.422,5.52,1.86,6.166,3.046.375,42.227-2.423,27.05-8.521-4.162-1.674-11.668-2.541-11.8-14.9-.048-4.458,2.262-11.928,18.869-19.7,6.905-3.23,12.91-9.306,20.291-14.226,6.622-4.414,14.654-7.579,20.531-12.272,9.132-7.291,22.446-12.529,31.832-13.338,8.729-.752,14.066,2.326,9.486,11.145.7,9.955,29.29-18.746,38.677-15.371,9.82,3.529,3.389,7.937,13.6,6.476,14.355-2.052,28.974,4.256,45.668.221,12.79-3.088,28.105-19.459,34.758-16.685-1.779,5.271,10.507,6.474,1.057,11.3,10.212,5.727,14.177-4.324,23.075-2.637,4.192.8,1.939,3.221,10.588,2.958,6.835-.206,5.462,5.982,11.663,7.165,6.345,1.213,22.01.2,33.715,2.684,7.7,1.633,11.657,7.506,17.271,6.912Zm28.767-82.716c10.677-1.276,40.89,24.029,27.58,22.091s-14.743,1.785-27.855,1.785-19.183-5.959-19.183-11.568,8.779-11.034,19.458-12.308Zm135.794,36.738c-2.417-3.517-4.752-4.762-6.815-7.041,2.575,1.336,6.857,2.887,8.947,4.53,2.814,2.209,3.9,3.668,9.13,5.956,1.153.5-5.3,5.236-11.262-3.445Zm-281.706,1.4c2.354-3.455,6.091-9.178,12.485-10.215,5.863-.95,8.816-3.149,12.91-4.387-3.212,2.445-7.709,6.908-11.019,8.563-4.45,2.225-6.933,2.728-12.919,7.944-.394.342-1.3-.742-1.457-1.9Zm39.481,95c-3.1-4.772-5.367-10.414-2.936-13.746.328-.449,6.46-6.838,5.63-11.854-1.108-6.705,21.816,8.188,28.382,15.836,7.15,8.329,1.895,17.069,4.024,18.7,4.62,3.533,10.156,3.418,10.709,9.445,1.166,12.687-5.652,8.621-12.257,4.939-12.988-7.238-18.14.446-33.552-23.318ZM1114.531,232.2c-9.611.571-3.429-3.352-9.48-6.721-.846,2.351-3.179,3.423-4.823,5.616a38.275,38.275,0,0,1-8.255.35,8.3,8.3,0,0,1-4.842,5.072c-3.139,1.177-6.469.217-9.477-1.2-.912,19-8.188,6.81-12.1,7.954,1.27,3.057-2.325,5.877-3.961,8.867-5.726,10.462-9.8,11.444-8.981,23.732,1.459-8.012,6.438-8.832,7.634-14.125a13.6,13.6,0,0,0,5.822-.935c-.879-1.425-1.586-2.829-1.529-3.679,5.664,1.108,7.232-10.143,19.564-5.953,3.793,1.633,6.364-1.2,10.705.44.4-3.61-7.559-6.278-6.612-9.041,1.953-3.453,8.842,1.347,9.393-3.451,1.551-.636,3.309-.518,3.9,1.864,4.292-2.807,3.484-7.209,6.6-6.642,1.448.262,3,2.291,6.445-2.146Zm39.4,7.528c1.859-1.765,6.086-1.053,7.99.256,5.492-3.2,8.932,2.52,14.763,1.359,3.709-.739,6.741,6.673,8.816,7.395,6.766,2.352,9.081,9.887,8.313,12.68,1.444,1.924,3.509,4.23,6.131,3.769-1.716-4.862,2.607-6.948,5.039-1,1.629,3.98,4.781,3.957,7.388,6.682,2.188,3.429.465,6.035,6.564,10.287,4.425,4.288,3.922,4.484,3.5,8.677,3.052-7.349-4.34-10.722-2.336-12.776-3.384-2.79-13.24-14.052-10.586-17.487-1.928-3.794-18.7-14.307-12-19.09-4.115-4.7-6.918-2.986-8.493-8.307-5.537-1.333-17.138,3.363-15.9-1.871-4.046,2.418-12.706,2.963-15.333-3.507-2.9,2.323-10.089,6.3-3.865,12.931ZM1241.179,355.7c.164-1.253-.461-2.609-3.771-3.07-1.248-.172-2.108.331-2.944,2.416-.848,2.113.513,3.44,2.23,3.727a3.7,3.7,0,0,0,4.485-3.073Zm-207.422-4.738c-.242-.265-3-1.08-4.03-.132-.509,1.136.425,2.821,1.626,3.963,1.419,1.347,3.218,1.936,3.455-.042a5.21,5.21,0,0,0-1.051-3.789Zm-800.74,91.67c3.659,3.477,5.947,7.78,7.69,12.619,2.494,8.467,10.2,14.114,14.482,22.262,5.244,2.076,10.343,3.165,15.858,2.046a17.164,17.164,0,0,0-.057-1.831c-1.956-2.3-1.059-11.524-7.532-12.859l-2.8-.418c-2.128-3.208-2.624-7.014-4.761-10.083-.9-1.285-3.555-3.7-5.339-2.724.661,2.692,2.083,5.4,1.274,8.721-3.772-5.427-9.037-14.1-14.9-17.239-.457-.245-2.719-1.069-3.913-.494ZM1990.832,498.3c12.2,2.371,25.577-6.466,29.782-9.618,10.585-7.934,20.72-17.69,26.744-29.631,2.113-4.184,1.87-7.624,7.3-13.244-3.679-1.972-6.721,1.26-7.746,2.789a44.049,44.049,0,0,0-3.666,7.374c-1.914,4.975-10.869,17.639-16.9,18.925,3.062-3.75,4.948-7.61,5.191-11.958a21.7,21.7,0,0,1,3.676-11.175c-3.015-.691-5.647,1.336-6.447,2.128-4.311,4.5-4.42,12.608-5.483,15.147-.764,2.58-6.229,6.481-9.309,12.889a21,21,0,0,0-1.833,5.759c-2.893,6.534-15.431,10.244-21.308,10.615Z" fill="#fff" fill-rule="evenodd"/>
      <path id="Path_4" data-name="Path 4" d="M1876.2,641.654l5.461-1.591c1.077,1.753,2.859,2.875,5.794,2.578,3.628-.368,5.073-3.055,5.652-5.913l2.625-.765.159.471a17.533,17.533,0,0,1,.7,5.572c0,1.267.053,2.9.092,4.7l-20.594,5.983c-.126-3.426.112-7.131.108-11.034Zm29.8-8.683,13.6-3.965-16.352-49.061-51.027,14.871-8.525-29.349L1899.04,549.4l22.939,78.974,2.943,10.137-18.32,5.32a46.659,46.659,0,0,0-.6-10.855Z" fill="#4c4c4c" fill-rule="evenodd"/>
      <path id="Path_5" data-name="Path 5" d="M1844.811,569.279l.386,1.33,55.371-15.957-.445-1.535-55.312,16.162Z" fill="#fff" fill-rule="evenodd"/>
      <path id="Path_6" data-name="Path 6" d="M1903.624,565.18l-1.8-6.2-55.3,16.189,2.056,7.076,55.046-17.068Z" fill="#fff" fill-rule="evenodd"/>
      <path id="Path_7" data-name="Path 7" d="M1876.058,650.807l20.592-5.674c-.028-1.176-.054-2.24-.054-3.127,0-.363-.005-.721-.015-1.076l-20.481,6.521c-.027,1.143-.047,2.262-.042,3.356Zm30.572-8.424,17.781-4.9-1.44-4.959-16.38,5.217c.073,1.518.066,3.067.039,4.641Z" fill="#fff" fill-rule="evenodd"/>
      <path id="Path_8" data-name="Path 8" d="M1888.712,629c.585,5.348,2.924,4.971,3.568.092a85.62,85.62,0,0,0,.1-11.209c-.1-4.938-3.648-4.906-3.7-.045-.046,4.17-.255,8.568.028,11.162Zm3.714,201.646-.118-16.5c-.279-2.47-.466-3.173-1.633-3.955-1.093.553-.923-.251-1.487,1.536-.972,3.074-.57,15.125-.571,18.564,0,4.621-1.02,17.9,1.7,20.254,2.626-.852,2.078-6.049,2.1-8.865.032-3.67,0-7.354,0-11.034Zm11.793-32.437c-1.284,4.205-4.239,13.191-7.021,16.543-2.715,3.271-3.56,2.324-3.6,4.453,3.656-.818,7.164-4.715,8.656-7.951a102.148,102.148,0,0,0,4.458-12.326l-2.49-.719Zm1.917-11.527c-.389-7.186-4.086-15.619-11.232-16.914,6.447,5.935,7.06,6.959,8.735,17.306l2.5-.392Zm-13.71-28.287c0-3.94,1.073-17.543-1.751-19.883-.487.379-1.463-.182-1.94,3.759l.014,32.948c.441,3.244.73,3.285,1.926,3.648,1.269-.834,1.435-1.947,1.662-4.264l.089-16.208Zm11.737-54.053c-1.565-3.385-4.926-7.471-9.124-8.162,3.017,2.488,5.134,4.164,6.6,8.88,1.278,4.106.822,10.3.822,14.9,0,13.053.894,17.436-7.5,24.15,3.848-.6,7.791-4.789,9.144-7.857,2.006-4.553,1.467-10.228,1.467-15.938,0-5.292.667-11.484-1.407-15.968Zm-11.737-19.268c0-4.527,1.175-17.726-1.751-19.963-.765.53-.833-.177-1.439,1.452-.821,2.212-.618,5.505-.618,7.833l.14,27.5c.406,2.9.673,3.193,1.917,3.58,2.123-1.59,1.75-6.209,1.749-9.368q0-5.516,0-11.033Zm2.577-61.48c8.173,6.2,7.46,11.314,7.46,23.752,0,7.539,1.009,14.449-3.324,20.209-1.342,1.785-2.628,2.453-3.966,3.963,4.311-1.053,7.378-4.543,9.017-8.184,2.038-4.521,1.38-10.664,1.38-15.988,0-5.393.583-11.061-1.421-15.6-1.509-3.422-5.238-7.379-9.146-8.15Z" fill="#fff" fill-rule="evenodd"/>
      <path id="Path_9" data-name="Path 9" d="M1889.188,637.078c-.312-2.381-1.9-1.937-3-1.057-2.307,1.866-1.436,3.422,1.635,3.1,1.014-.229,1.557-.553,1.361-2.047Zm.015,217.789c-.072-1.689-.443-1.5-1.843-1.535a4.31,4.31,0,0,0,.031,3.353c1.52-.005,1.885-.111,1.812-1.818Zm-10.993-46.012c-4.179-6.464-2.967-12.3-2.967-21.988,0-5.381,1.06-6.332,2.983-9.855-2.887,1.435-4.769,5.4-4.768,10.213,0,6.912-1.371,18.951,4.752,21.63Zm3.958-2.093c2.031.23,3.505-1.494,2.513-2.508-.888-.9-2.856.154-2.513,2.508Zm20.2-15.551a20.58,20.58,0,0,0,7.567,1c-1.2-2.029-7.374-2.268-9.411-2.2.481.642-.235.193.817.81l1.027.391Zm-4.271,10.621c-1.665,2.934-2.016,4.777-4.487,6.449l-.012,2.678c2.015-1.135,4.419-5.615,4.5-9.127Zm-4.535-31.057c.025,8.4-.241,2.59,2.533,8.182.717,1.447,2.314,8.106,2.9,9.318.131-4.5-2.069-15.922-5.429-17.5Zm-4.36,11.495c-.088-1.411-.407-1.463-1.762-1.454a4.139,4.139,0,0,0-.113,3.317c1.351-.063,1.985-.112,1.875-1.863Zm6.465-47c-1.811,3.061-2.029,1.04-2.1,5.713,2.826-1.334,4.251-7.109,4.109-11.076-.744,1.844-.912,3.518-2,5.363Zm-11.029-3.583c-1.057-1.049-2.66.535-2.528,2.538,2.256.225,3.521-1.552,2.528-2.538Zm-9.337-3.182c-.185-2.561-.195-15.588.185-17.762.536-3.062,1.687-4.15,2.655-6.158-5.12,3.414-4.681,7.918-4.681,15.367,0,6.334-.71,12.914,4.2,15.824-1.013-2.726-2.089-3.543-2.361-7.271Zm13.909-18.53c.044-1.447-.393-1.538-1.381-1.761-.994.875-1.524,2.062-.108,3.363.98.084,1.448-.248,1.489-1.6Zm8.445-.47c.03-3.256-.831-9.977-4.076-11.287,0,8.924.42,2.711,2.94,9.117.789,2.012-.192.742,1.136,2.17Zm-1.994-46.862a28.171,28.171,0,0,0-2.082,3.207l-.008,2.581c2.63-1.481,3.923-5.754,4.08-9.594-.422.453-.28.094-.675.838a17.707,17.707,0,0,1-1.315,2.968ZM1883.6,659a2.121,2.121,0,0,0-1.547,1.525c-.212,1.828,1.521,2.037,2.393,1.01.537-.633,1.267-2.822-.846-2.535Zm-8.209-2.047.049-18.5c.5-3.283,1.715-4.322,2.761-6.453-1.06,1-1.78,1.039-2.789,2.574-2.557,3.9-1.957,8.76-1.957,13.479,0,6.947-.237,12.806,4.716,15.681-1.036-2.236-2.321-3.23-2.78-6.781Zm18.1-31.4c.022,7.362-.492,2.981,2.2,7.522,1.415,2.389.509,2.307,1.969,3.828.028-4.613-1.139-9.781-4.165-11.35Z" fill="#4c4c4c" fill-rule="evenodd"/>
      <path id="Path_10" data-name="Path 10" d="M333.832,606.217l21.613,8.846-.043,4.205-.253.056,0,0-.247.061-.008,0-.127.033-.113.029-.014,0-.125.035-.108.031-.018.006-.006,0-.217.065,0,0-.022.006-.189.06-.032.01-.026.01-.123.041-.092.031-.03.01-.122.043-.087.031-.034.014-.2.076-.039.013c-.144.057-.288.116-.43.174l-.045.02-.118.05-.068.03-.049.021-.117.053-.063.029-.053.024-.115.054-.059.028-.057.027-.114.055-.054.027-.06.03-.113.058-.05.025-.063.032-.112.06-.046.024-.066.035-.111.06-.041.024-.07.039-.11.062-.037.02-.072.043-.109.062-.032.02-.076.047-.108.064-.029.018-.078.049-.107.066-.024.016-.082.051-.105.068-.021.014-.084.056-.1.069-.016.011-.087.059-.1.07-.012.01-.09.062-.1.073-.009.005-.092.067-.1.074-.006,0-.1.07-.1.075,0,0-.1.072-.1.076v0l-.1.076-.092.072-.005,0-.1.078-.087.073-.009.005-.1.079-.083.07-.012.01-.094.08-18.185-7.461,3.793-9.246Zm30.2,12.361,3.765,1.541.008.3v.058l0,.092,0,.1v.057l0,.128v.024l0,.15v.014l0,.139v.048l0,.1,0,.082v.068l0,.119v.034l0,.15v0l0,.149v.037l0,.113v.072l0,.078v.153l0,.14v.008l0,.151v.027l0,.123v.148l0,.1v2.379l0,.127v.015l0,.139v.018l0,.123v.049l0,.089,0,.08,0,.057,0,.113,0,.026,0,.136v.006l-.005.129,0,.039,0,.1,0,.07,0,.065-.007.133-.006.129v0l-.007.131,0,.028-.006.1,0,.059-.005.072-.005.086,0,.041-.008.117v.012l-.009.127,0,.017-.009.108,0,.047-.007.078-.007.076,0,.049-.01.1,0,.022-.012.121v.008l-.012.113,0,.035-.009.084-.007.063-.007.056-.011.09,0,.028-.015.115,0,.029,0,.029,0,.03,0,.029,0,.029,0,.03,0,.029,0,.019v.008l0,.029-.018.114,0,.029-.005.027,0,.012,0,.016-.005.027,0,.029-.005.028,0,.027-.005.028,0,.027,0,.027v0l-.005.022,0,.027-.01.053-.005.027-.005.027,0,.026,0,.023v0l-.006.025-.005.026-.005.025,0,.027-.005.026-.005.025-.006.026,0,.015,0,.01-.006.026-.005.023-.006.025,0,.026-.006.025-.005.023-.007.026v.008l0,.015-.006.026,0,.023-.006.024-.006.025-.005.023-.007.024-.006.023v0l0,.022-.006.023-.012.047-.006.024-.006.021-.006.024-.005.019v0l-.007.021-.006.024-3.185-1.307v-.021l0-.006v-.182l0-.008v-.049l0-.005V629l-.013-.115v-.006l-.011-.111,0-.016-.009-.1,0-.022-.008-.1,0-.031-.007-.094,0-.039-.006-.088,0-.046-.006-.082,0-.057-.005-.072,0-.067,0-.068,0-.074,0-.061,0-.084,0-.053-.005-.095v-.043l0-.106,0-.035,0-.115v-.028l0-.125v-.019l0-.137V626.9l0-.148h0l0-.148v-.012l0-.141v-.019l0-.133v-1.942l0-.162v-.007l0-.172v0l0-.17v-.014l0-.16v-.023l0-.151v-.033l0-.143v-.045l0-.128v-.059l0-.119V622.9l0-.109v-.078l0-.1v-.089l0-.09,0-.1v-.076l0-.115v-.067l0-.125v-.054l0-.139,0-.043,0-.15v-.032l0-.162v-.019l0-.174v-.01l0-.184h0l0-.182v-.014l0-.17v-.025l0-.158v-.037l0-.149,0-.047,0-.136V620l0-.125v-.07l0-.113,0-.085v-.1l0-.1,0-.09v-.1l0-.08,0-.117v-.067l0-.131v-.054l0-.141v-.045Zm12.022,4.922,6.118,2.5,16.8-45.99-46.573-19.061,10.984-26.769L413.864,554.9l-29.556,72.033-2.791,6.8-.03-.158-.015-.08,0-.012-.012-.068-.017-.078-.016-.08-.011-.057-.005-.021-.016-.08-.018-.078-.017-.078-.005-.026-.012-.055-.018-.078-.034-.148,0-.008-.019-.08-.037-.156-.01-.037-.011-.041-.039-.157-.021-.078v0l-.02-.072c-.042-.156-.085-.31-.131-.467l0-.015-.018-.061-.048-.154-.018-.061-.006-.017-.049-.155-.025-.076-.009-.027-.016-.049-.052-.154-.025-.072v-.005l-.081-.228-.015-.041-.013-.035-.086-.229,0-.007-.056-.143-.03-.076-.02-.051-.01-.025-.093-.225-.009-.02-.023-.056-.032-.074-.033-.077-.028-.062-.005-.012-.011-.023-.09-.2-.015-.032-.02-.043-.035-.074-.071-.148-.165-.332v-.006l-.165-.317,0,0-.167-.309,0-.008-.168-.3-.005-.01-.168-.287-.007-.009,0-.006-.163-.266,0-.006-.008-.012-.051-.08-.119-.185-.008-.014c-.117-.179-.234-.351-.352-.519l-.011-.016-.171-.238-.014-.018-.048-.066-.123-.164-.014-.018-.047-.062-.062-.08-.062-.079-.016-.019-.006-.008-.155-.193-.01-.012-.017-.019-.046-.055-.062-.076-.063-.073-.018-.023-.045-.051-.063-.072-.063-.072-.02-.022-.043-.049-.064-.07-.062-.07-.022-.024-.042-.045-.064-.066-.064-.068-.022-.024-.042-.043-.063-.066-.064-.065-.025-.025-.039-.039-.064-.063-.065-.062-.064-.063-.064-.062-.064-.061-.027-.025-.037-.035-.065-.059-.064-.058-.029-.028-.036-.031Zm4.6,12.32-.145.354-3.022-1.24-.007-.051-.007-.051-.047-.311v-.005l-.051-.3-.008-.047-.011-.063-.038-.2,0-.009-.031-.163-.006-.031-.041-.2-.006-.027-.008-.036-.057-.257-.011-.047-.007-.028-.047-.2-.011-.043-.031-.123-.007-.027-.052-.192-.016-.058-.009-.033-.084-.289v-.006l-.094-.3-.011-.037-.1-.278-.019-.052c-.069-.2-.142-.391-.22-.584l-.009-.022-.006-.013-.109-.262-.015-.035-.027-.063-.1-.213-.037-.078-.114-.238-.009-.018,0,0-.14-.274-.012-.023-.017-.032-.14-.258-.01-.017-.161-.277-.013-.022c-.056-.1-.113-.189-.172-.283l0,0-.155-.24-.051-.078-.171-.25-.016-.024q-.2-.277-.409-.553l-.009-.013-.015-.02-.182-.228-.055-.069-.2-.246-.029-.033-.216-.25,0,0-.006-.008-.026-.027-.187-.2-.077-.084-.22-.232-.034-.036-.229-.232-.036-.035-.05-.049-.176-.172-.066-.064-.01-.01-.036-.033-.231-.215-.026-.026-.061-.056-.234-.211-.052-.045-.272-.238,0,0-.021-.018-.07-.061-.193-.162-.075-.064-.035-.027-.278-.229-.039-.031-.093-.074-.212-.168-.059-.047-.063-.047-.314-.242c3.909.771,7.636,4.728,9.147,8.15l.026.061.026.06.026.059.014.033.011.027.025.061.025.062.025.061,0,.006.022.054.024.061.024.061.015.041.008.021.023.061.023.062.023.061,0,.013.017.049.022.063.022.06.017.047.005.016.021.062.021.063.021.062.006.018.014.045.02.062.02.063.017.054,0,.01.019.063.019.062.019.065.007.023.011.039.018.065.018.062.017.061v0l.018.064.017.062.018.065.007.031.009.033.017.065.016.064.016.065v0l.015.062.015.065.016.064.009.039.006.026.015.066.014.065.015.066,0,.008.011.056.014.065.014.066.01.045,0,.02.013.066.014.066.012.067,0,.013.009.051.013.067.012.066.011.053,0,.013.011.067.011.066.013.067,0,.023.007.043.011.066.011.067.009.061v.007Zm-7.916-2.834-2.379-.976h0l-.088-.125h0l-.085-.115-.008-.012-.073-.1-.016-.021-.062-.08-.024-.032-.051-.062-.03-.039-.041-.049-.036-.045-.033-.037-.042-.049-.024-.027-.063-.071-.051-.054-.009-.01-.054-.059,0,0-.054-.056,0,0-.05-.049-.007-.008-.042-.041-.013-.012-.034-.031-.016-.015-.028-.028-.02-.017-.022-.02-.023-.021-.016-.016-.026-.023-.011-.01-.028-.026-.008-.007-.029-.028,0,0-.031-.029h0l-.055-.059-.006-.007a.921.921,0,0,1-.073-.1l3.771,2.57Zm-1.168-4.213.011.026.014.031c.047.1.092.211.136.32l0,.006.024.061.048.121.071.185.034.092.034.1.014.039.048.139,0,.011.042.125.022.069.023.072.038.123,0,.016.043.142.011.039.03.1.027.094.014.048.039.145,0,.008.036.138.016.065,0,.012.047.191.006.025.035.149.007.033.026.115.021.092.012.059.031.15h0l.03.151.012.06.017.092.022.119.006.033.027.154.005.026.021.127.015.088.01.066.023.148v.008l-1.168-4.213Z" fill="#4c4c4c" fill-rule="evenodd"/>
      <path id="Path_11" data-name="Path 11" d="M361.962,537.66l-.5,1.215L411.9,559.69l.574-1.4L361.962,537.66Z" fill="#fff" fill-rule="evenodd"/>
      <path id="Path_12" data-name="Path 12" d="M407.079,571.426l2.32-5.65L358.882,545.17l-2.649,6.455,50.846,19.8Z" fill="#fff" fill-rule="evenodd"/>
      <path id="Path_13" data-name="Path 13" d="M331.978,610.734l-.995,2.426,19.306,8.235.014-.008.05-.034.064-.038.065-.04.03-.019.034-.022.13-.078.049-.029.017-.01.065-.037.065-.039.066-.037v0l.066-.037.067-.037.066-.037.018-.01.049-.028.066-.035.067-.037.068-.035.067-.037.068-.035.054-.028.014-.007.068-.034.068-.035.069-.035,0,0,.064-.031.069-.033.069-.034.023-.011.046-.022.07-.033.069-.031.042-.02.028-.013.07-.032.071-.031.06-.027.01,0,.071-.031.07-.03.071-.031.009,0,.063-.025.071-.03.072-.029.027-.011.044-.018.144-.057.048-.017.025-.01.072-.027.073-.028.008,0,.138-.051.073-.025.074-.027.013,0,.06-.02.074-.025.074-.025.075-.024.073-.025.075-.024.075-.023.075-.022.075-.023.006,0,.144-.041.076-.022.013,0,.139-.04.076-.019-22.806-8.682Zm31.978,16.491,3.72,1.588v-.01l.006-.053.007-.06,0-.034,0-.029.007-.062.005-.057V628.5l.007-.062.007-.063v-.02l0-.042.006-.065,0-.043,0-.022.006-.062.005-.064v-.006l0-.059.005-.066,0-.03,0-.035,0-.066.005-.055v-.01l.005-.066.005-.066v-.016l0-.051,0-.066,0-.041,0-.026,0-.068,0-.066v0l0-.067,0-.068V627.1l0-.042,0-.066,0-.054v-.016l0-.069,0-.068v-.012l0-.058,0-.069v-.039l0-.031,0-.07,0-.067v0l0-.071,0-.07v-.07l0-.073,0-.051v-.019l0-.072,0-.071v-.072l0-.072v-.072l0-.071v-.074l0-.072V624.4l-3.924-1.494v.074l0,.073v.074l0,.072v.51l0,.07v.5l0,.071v2.078h0v.25l0,.062v.063l0,.06v.061l0,.06,0,.061v.06l0,.061v.059Zm4.869,2.078,3.456,1.472-.025-.091-.005-.018-.032-.111-.02-.069-.011-.041-.033-.109-.015-.047-.018-.061-.035-.109-.008-.025-.026-.08-.036-.108,0-.006-.035-.1-.031-.09-.005-.016-.038-.1-.025-.069-.013-.035-.058-.15-.021-.055-.041-.1-.01-.028-.03-.074-.042-.1,0-.005-.04-.092-.038-.086-.005-.012-.044-.1-.03-.066-.014-.031-.046-.094-.022-.047-.024-.047-.046-.093-.015-.028-.033-.064-.049-.092,0-.008-.045-.082-.044-.08-.005-.008-.051-.088-.036-.062-.015-.026-.052-.085-.028-.044-.025-.041-.054-.084-.017-.027-.037-.056-.055-.081-.007-.009-.049-.071-.052-.074,0-.006-.058-.078-.006-.008-.063-.082c-.055-.072-.111-.142-.168-.209l-.021-.025-.04-.047-.062-.07-.009-.01-.054-.061-.06-.064,0,0-.064-.066-.048-.051-.017-.016-.066-.064-.01-.008-.05-.049-.006-.006-.068-.06-.053-.047-.015-.012-.069-.059-.012-.009-.008-.006-.109-.088-.011-.008v0l-.007,0-.113-.084-.008-.006-.016-.011-.112-.078-.005,0-.03-.022-.1-.062-.011-.008-.116-.068-.015-.008-.016-.01-.125-.067v2.1l0,.061v.117l0,.113v1.35Zm8.26,3.523,3.253,1.387-.008-.035v0l-.01-.041-.01-.039-.01-.041-.011-.039-.01-.039-.007-.026,0-.015-.011-.039-.021-.079-.011-.039-.01-.041-.005-.013-.007-.026-.011-.039-.033-.119-.011-.039,0,0-.01-.035-.012-.039-.023-.078-.012-.039-.01-.032,0-.007-.012-.039-.025-.079-.013-.039-.012-.037-.007-.023-.006-.016-.012-.039-.013-.039-.013-.039-.013-.037-.013-.039,0-.012-.01-.025-.013-.039-.013-.039-.014-.04-.013-.037-.015-.039h0v0l-.04-.111-.014-.039-.015-.037-.011-.029,0-.01-.015-.037-.015-.037-.029-.077-.015-.037-.008-.019-.007-.02-.031-.074-.015-.037-.015-.039-.016-.037,0-.01-.012-.027-.015-.037-.048-.108-.017-.041-.027-.06-.027-.059-.019-.041-.009-.021-.028-.059-.029-.061-.01-.021-.019-.039-.029-.063-.03-.06h0l-.03-.061-.121-.234,0-.01-.01-.021-.022-.039-.033-.063-.033-.061h0l-.033-.06-.058-.1-.011-.019-.035-.063-.036-.06-.012-.022-.023-.041-.036-.06-.036-.063h0l-.037-.06-.037-.063-.025-.041-.012-.019-.039-.061-.038-.062-.014-.022-.025-.039-.04-.062-.039-.061v0l-.039-.059-.041-.062-.028-.043-.013-.018-.041-.062-.042-.061-.014-.021-.027-.039-.043-.061-.042-.062h0l-.042-.061-.044-.06-.03-.043-.013-.018-.044-.06-.044-.061-.017-.021-.028-.04-.045-.06-.046-.06v0l-.045-.059-.045-.061-.033-.041-.014-.017-.047-.061-.047-.058-.017-.024-.03-.037-.048-.059-.048-.06,0,0-.047-.057-.049-.058-.034-.043-.015-.016-.049-.058-.049-.059-.019-.023-.032-.036-.049-.058-.051-.059-3.239-1.232.162.181h0l.08.092,0,0,.154.18.076.092.012.013.21.26.073.092,0,0,.069.09.07.091.069.092.068.094.067.092.066.092.006.009.06.084.063.092.064.094.116.176.007.01.061.093v0l.105.166.012.02.058.094.056.093.009.016.047.078.1.17.054.1.113.209.052.1.05.1.048.1.047.093v0l.048.1.045.1,0,0,.043.094.045.1.044.1.008.015.055.129.078.188.041.1.1.246.006.018,0,.006.009.025.093.254.006.018.007.019.013.037.085.25.011.031.022.071.077.248,0,.006.017.058.06.209.017.061.013.045.057.211.019.076.008.031Zm4.432.9,1.467-3.578-2.926-1.113.015.031.018.039.032.073.032.07.032.07.007.016.025.057.031.07.03.072.03.07h0l.03.073.03.072.029.072.022.053.007.018.029.072.056.144.014.036.014.035.027.074.027.072.027.07.007.02.019.055.078.217v0l.093.275.005.013.07.219.014.043.009.031.067.219.008.026.014.049.021.074.021.074.021.072,0,.008.019.066.02.075.02.074.017.062,0,.012.019.074.02.074.019.075.011.045.007.029v0l.054.219.007.029.011.045.017.076.034.148,0,.012.014.065.016.074.016.074.015.07v.006l.015.074.015.077.015.074.01.052.005.024.028.15.015.076Z" fill="#fff" fill-rule="evenodd"/>
      <path id="Path_14" data-name="Path 14" d="M364.073,629c.585,5.348,2.924,4.971,3.568.092a85.791,85.791,0,0,0,.1-11.209c-.1-4.938-3.647-4.906-3.7-.045-.045,4.17-.254,8.568.029,11.162Zm3.714,201.646-.119-16.5c-.278-2.47-.465-3.173-1.632-3.955-1.093.553-.923-.251-1.488,1.536-.971,3.074-.569,15.125-.57,18.564,0,4.621-1.02,17.9,1.7,20.254,2.626-.852,2.078-6.049,2.1-8.865.033-3.67,0-7.354,0-11.034Zm11.793-32.437c-1.285,4.205-4.239,13.191-7.021,16.543-2.715,3.271-3.56,2.324-3.6,4.453,3.656-.818,7.164-4.715,8.656-7.951a102.163,102.163,0,0,0,4.458-12.326l-2.49-.719Zm1.917-11.527c-.389-7.186-4.086-15.619-11.231-16.914,6.445,5.935,7.058,6.959,8.733,17.306l2.5-.392ZM367.787,758.4c0-3.94,1.072-17.543-1.751-19.883-.488.379-1.464-.182-1.94,3.759l.013,32.948c.442,3.244.731,3.285,1.927,3.648,1.269-.834,1.435-1.947,1.661-4.264l.09-16.208Zm11.737-54.053c-1.566-3.385-4.925-7.471-9.124-8.162,3.017,2.488,5.134,4.164,6.6,8.88,1.278,4.106.822,10.3.822,14.9,0,13.053.894,17.436-7.5,24.15,3.848-.6,7.791-4.789,9.144-7.857,2.006-4.553,1.468-10.228,1.468-15.938,0-5.292.666-11.484-1.408-15.968Zm-11.737-19.268c0-4.527,1.175-17.726-1.751-19.963-.765.53-.833-.177-1.438,1.452-.822,2.212-.618,5.505-.618,7.833l.139,27.5c.406,2.9.673,3.193,1.917,3.58,2.123-1.59,1.75-6.209,1.749-9.368q0-5.516,0-11.033Zm2.577-61.48c8.173,6.2,7.46,11.314,7.46,23.752,0,7.539,1.009,14.449-3.324,20.209-1.342,1.785-2.628,2.453-3.966,3.963,4.312-1.053,7.378-4.543,9.018-8.184,2.037-4.521,1.38-10.664,1.38-15.988,0-5.393.582-11.061-1.422-15.6-1.51-3.422-5.238-7.379-9.146-8.15Z" fill="#fff" fill-rule="evenodd"/>
      <path id="Path_15" data-name="Path 15" d="M364.549,637.078c-.312-2.381-1.9-1.937-3-1.057-2.308,1.866-1.437,3.422,1.634,3.1,1.014-.229,1.557-.553,1.361-2.047Zm.015,217.789c-.072-1.689-.443-1.5-1.843-1.535a4.306,4.306,0,0,0,.031,3.353c1.52-.005,1.885-.111,1.812-1.818Zm-10.993-46.012c-4.178-6.464-2.967-12.3-2.967-21.988,0-5.381,1.06-6.332,2.982-9.855-2.886,1.435-4.768,5.4-4.768,10.213,0,6.912-1.37,18.951,4.753,21.63Zm3.958-2.093c2.031.23,3.5-1.494,2.513-2.508-.889-.9-2.857.154-2.513,2.508Zm20.2-15.551a20.574,20.574,0,0,0,7.566,1c-1.2-2.029-7.373-2.268-9.409-2.2.48.642-.236.193.816.81l1.027.391Zm-4.271,10.621c-1.665,2.934-2.016,4.777-4.487,6.449l-.013,2.678c2.016-1.135,4.42-5.615,4.5-9.127Zm-4.536-31.057c.025,8.4-.24,2.59,2.533,8.182.719,1.447,1,3.168,1.585,4.381.13-4.5-.758-10.985-4.118-12.563Zm-4.359,11.495c-.088-1.411-.407-1.463-1.763-1.454a4.147,4.147,0,0,0-.113,3.317c1.352-.063,1.985-.112,1.876-1.863Zm6.465-47c-1.81,3.061-2.03,1.04-2.106,5.713,2.827-1.334,4.252-7.109,4.11-11.076-.744,1.844-.912,3.518-2,5.363ZM360,731.69c-1.057-1.049-2.661.535-2.527,2.538,2.255.225,3.52-1.552,2.527-2.538Zm-9.337-3.182c-.185-2.561-.194-15.588.185-17.762.535-3.062,1.686-4.15,2.655-6.158-5.12,3.414-4.681,7.918-4.681,15.367,0,6.334-.71,12.914,4.2,15.824-1.013-2.726-2.089-3.543-2.361-7.271Zm13.909-18.53c.044-1.447-.393-1.538-1.381-1.761-.994.875-1.525,2.062-.108,3.363.98.084,1.448-.248,1.489-1.6Zm8.445-.47c.03-3.256-.831-9.977-4.076-11.287,0,8.924.419,2.711,2.939,9.117.79,2.012-.192.742,1.137,2.17Zm-1.994-46.862a28.326,28.326,0,0,0-2.082,3.207l-.007,2.581c2.629-1.481,3.923-5.754,4.079-9.594-.422.453-.28.094-.676.838a17.487,17.487,0,0,1-1.314,2.968ZM358.964,659a2.123,2.123,0,0,0-1.548,1.525c-.211,1.828,1.522,2.037,2.394,1.01.538-.633,1.267-2.822-.846-2.535Zm-8.209-2.047.049-18.5c.5-3.283,1.716-4.322,2.761-6.453-1.061,1-1.78,1.039-2.789,2.574-2.557,3.9-1.957,8.76-1.957,13.479,0,6.947-.237,12.806,4.715,15.681-1.036-2.236-2.321-3.23-2.779-6.781Zm18.1-31.4c.022,7.362-.493,2.981,2.2,7.522,1.414,2.389.508,2.307,1.969,3.828.027-4.613-1.14-9.781-4.166-11.35Z" fill="#4c4c4c" fill-rule="evenodd"/>
    </g>
    <text id="AcknowledgeMEnt" transform="translate(488 968)" fill="#fff" font-size="111" font-family="Merriweather-Regular, Merriweather" letter-spacing="0.102em"><tspan x="0" y="0" fill="#fff">Acknowledge</tspan><tspan y="0" font-size="200" letter-spacing="0.008em" fill="#000">ME</tspan><tspan y="0" fill="#fff">nt</tspan></text>
    <text id="ME" transform="translate(1334 1056)" fill="#720202" font-size="207" font-family="Merriweather-Regular, Merriweather"><tspan x="0" y="0">ME</tspan></text>
    <text id="I_will_not_forget_nor_will_I_let_you_define" data-name="I will not forget nor will I let you define" transform="translate(487 1056)" fill="#800" font-size="42" font-family="Merriweather-Regular, Merriweather"><tspan x="0" y="0">I will not forget nor will I let you define</tspan></text>
  </g>
</svg>
