<svg id="Design" xmlns="http://www.w3.org/2000/svg" width="489.3" height="136.842" viewBox="0 0 489.3 136.842">
  <g id="Component">
    <g id="Group_3" data-name="Group 3">
      <path id="Path_6" data-name="Path 6" d="M6.693,181.706v3.241a.563.563,0,0,0,.612.579h32.2c24.612,0,42.612-14.237,42.612-40.626,0-26.159-17.878-40.395-42.49-40.395H7.305a.563.563,0,0,0-.612.578v3.126a.563.563,0,0,0,.612.578l9.184.695v71.067l-9.184.579A.563.563,0,0,0,6.693,181.706ZM66.938,144.9c0,19.445-5.633,35.533-27.429,35.533H28.489V109.6H40.734C63.142,109.6,66.938,129.39,66.938,144.9ZM88,181.706v3.241a.563.563,0,0,0,.612.579h60.244a.563.563,0,0,0,.613-.579V171.289a.563.563,0,0,0-.613-.578h-3.8a.765.765,0,0,0-.734.578l-1.47,9.144H109.673V146.289H135.02l1.469,7.639a.66.66,0,0,0,.735.578h3.306a.563.563,0,0,0,.612-.578v-20.14a.564.564,0,0,0-.612-.579h-3.551a.768.768,0,0,0-.735.579l-.979,7.061H109.673V109.6h33.183l1.225,9.143a.765.765,0,0,0,.735.579h4.04a.563.563,0,0,0,.613-.579V105.083a.563.563,0,0,0-.613-.578H88.612a.563.563,0,0,0-.612.578v3.126a.563.563,0,0,0,.612.578l9.184.695v71.067l-9.184.579A.563.563,0,0,0,88,181.706Z" transform="translate(-6.693 -78.77)" fill="#0f4c81" fill-rule="evenodd" opacity="0.2"/>
      <path id="Path_7" data-name="Path 7" d="M293.953,105.083v3.126a.563.563,0,0,0,.612.578l9.306.695v71.067l-9.306.579a.563.563,0,0,0-.612.578v3.241a.563.563,0,0,0,.612.579h30.857a.563.563,0,0,0,.612-.579v-3.241a.563.563,0,0,0-.612-.578l-9.551-.579V109.6l9.551-.811a.563.563,0,0,0,.612-.578v-3.126a.563.563,0,0,0-.612-.578H294.565A.563.563,0,0,0,293.953,105.083ZM395.34,123.718h5.143a.563.563,0,0,0,.613-.578V105.084a.563.563,0,0,0-.613-.579h-3.918a.673.673,0,0,0-.735.463l-1.224,2.546s-5.51-3.588-20.694-4.282c-24.98-1.158-40.9,15.857-40.9,41.9,0,26.274,17.143,41.784,41.877,41.784,9.062,0,18.49-1.852,26.205-6.945a.691.691,0,0,0,.367-.694v-26.39a.564.564,0,0,0-.612-.579H379.912a.564.564,0,0,0-.612.579v4.4a.563.563,0,0,0,.612.579l10.408.81,2.694,17.825c-4.653,3.241-11.388,5.208-18.123,5.208-20.449,0-27.673-17.245-27.673-36.575,0-19.445,5.878-37.5,27.8-36.691,9.428.347,18,6.829,19.592,14.7A.765.765,0,0,0,395.34,123.718Zm20.817,57.988v3.241a.563.563,0,0,0,.612.579h24.245a.563.563,0,0,0,.612-.579v-3.241a.563.563,0,0,0-.612-.578l-9.061-.926V110.061l50.2,75.118a.752.752,0,0,0,.734.347h3.674a.563.563,0,0,0,.612-.579V109.6l8.2-.811a.562.562,0,0,0,.612-.578v-3.126a.562.562,0,0,0-.612-.578h-21.8a.563.563,0,0,0-.612.578v3.126a.563.563,0,0,0,.612.578l8.2.811v51.853l-39.183-56.6a.755.755,0,0,0-.735-.347h-25.1a.563.563,0,0,0-.612.578v3.126a.563.563,0,0,0,.612.578l9.8.695v70.6l-9.8,1.042A.563.563,0,0,0,416.157,181.706Z" transform="translate(-6.693 -78.77)" fill="#0f4c81" fill-rule="evenodd" opacity="0.2"/>
      <g id="Component-2" data-name="Component" transform="translate(156)">
        <path id="Path_2" data-name="Path 2" d="M167.092,166.4l5.17-.085a.773.773,0,0,1,.749.568c1.778,9.6,11.975,15.118,21.569,14.612,7.5-.356,15.958-2.584,15.79-11.632-.179-9.708-10.724-14.73-21.9-20.052-12.59-6-25.978-12.373-26.235-26.262-.3-16.123,16.718-21.393,30.145-21.034,15.274.444,23.6,4.832,23.6,4.832.852.541,1.268-.7,1.675-1.914a7.955,7.955,0,0,1,.6-1.489.756.756,0,0,1,.732-.36l3.569-.059a.787.787,0,0,1,.233.031.775.775,0,0,1,.232-.031l3.57.059a.756.756,0,0,1,.732.36,8.024,8.024,0,0,1,.6,1.489c.407,1.214.823,2.455,1.674,1.914,0,0,8.33-4.388,23.6-4.832,13.426-.359,30.442,4.911,30.145,21.034-.257,13.889-13.645,20.266-26.235,26.262-11.174,5.322-21.719,10.344-21.9,20.052-.167,9.048,8.287,11.276,15.791,11.632,9.594.506,19.791-5.011,21.569-14.612a.773.773,0,0,1,.749-.568l5.17.085a.563.563,0,0,1,.6.59l-.334,18.1a.567.567,0,0,1-.626.57l-3.939-.065a.674.674,0,0,1-.73-.476,8.3,8.3,0,0,1-.288-1.165c-.177-.878-.352-1.748-.77-1.521,0,0-6.233,4.19-21.99,4.046-13.294-.1-26.221-6.814-25.947-21.661.239-12.938,12.694-19.347,24.5-25.421,10.632-5.472,20.737-10.671,20.912-20.126.178-9.627-9.274-11.176-16.54-11.063-11.578.273-21.9,5.9-25.009,14.207-.129.346-.254.46-.624.453l-4.923-.081-4.924.081c-.369.007-.494-.107-.624-.453-3.108-8.3-13.43-13.934-25.008-14.207-7.266-.113-16.718,1.436-16.54,11.063.174,9.455,10.279,14.654,20.912,20.126,11.8,6.074,24.259,12.483,24.5,25.421.274,14.847-12.653,21.558-25.948,21.661-15.756.144-21.989-4.046-21.989-4.046-.418-.227-.594.643-.77,1.521a8.148,8.148,0,0,1-.289,1.165.673.673,0,0,1-.73.476l-3.938.065a.567.567,0,0,1-.626-.57l-.335-18.1A.565.565,0,0,1,167.092,166.4Z" transform="translate(-162.234 -78.77)" fill="#0f4c81" fill-rule="evenodd"/>
        <g id="Group_1" data-name="Group 1" transform="translate(0)">
          <path id="Path_4" data-name="Path 4" d="M165.659,89.544l.446-1.065a3.139,3.139,0,0,0,.853.4,3.1,3.1,0,0,0,.913.159,1.709,1.709,0,0,0,1.149-.37,1.186,1.186,0,0,0,.434-.943,1.428,1.428,0,0,0-.241-.8,2.949,2.949,0,0,0-1.213-.8l-.721-.318a2.853,2.853,0,0,1-1.28-.961,2.381,2.381,0,0,1-.364-1.337,2.007,2.007,0,0,1,.709-1.574,2.65,2.65,0,0,1,1.821-.625,3.453,3.453,0,0,1,2.065.457l-.361,1.007a2.876,2.876,0,0,0-.745-.324,3.139,3.139,0,0,0-.929-.156,1.378,1.378,0,0,0-.981.336,1.13,1.13,0,0,0-.357.862,1.349,1.349,0,0,0,.128.59,1.248,1.248,0,0,0,.358.446,5.4,5.4,0,0,0,.938.5l.733.33a2.879,2.879,0,0,1,1.286.981,2.611,2.611,0,0,1,.37,1.449,2.026,2.026,0,0,1-.81,1.62,3.307,3.307,0,0,1-2.166.665A3.738,3.738,0,0,1,165.659,89.544Zm12.565.388v-4.1h-3.911v4.1h-1.222V81.456h1.222v3.4h3.911v-3.4h1.222v8.476Zm9.148,0-.617-1.788h-3.33l-.66,1.788H181.4l3.635-8.592h.324l3.373,8.592Zm-2.236-6.37-1.387,3.732h2.658Zm11.324,6.486h-.385L193.943,84.2l-1.992,5.844h-.385l-2.823-8.592h1.271l1.8,5.919,1.968-5.919h.427l1.943,5.907,1.827-5.907h1.271Zm10.579,0-4.626-6.2v6.081h-1.161V81.456h.489l4.5,5.861V81.456H207.4v8.592Z" transform="translate(-162.635 -78.77)" fill="#0f4c81" fill-rule="evenodd"/>
          <path id="Path_5" data-name="Path 5" d="M238.953,89.544l.446-1.065a3.139,3.139,0,0,0,.853.4,3.1,3.1,0,0,0,.913.159,1.709,1.709,0,0,0,1.149-.37,1.186,1.186,0,0,0,.434-.943,1.421,1.421,0,0,0-.242-.8,2.937,2.937,0,0,0-1.212-.8l-.721-.318a2.853,2.853,0,0,1-1.28-.961,2.381,2.381,0,0,1-.364-1.337,2.007,2.007,0,0,1,.709-1.574,2.65,2.65,0,0,1,1.821-.625,3.453,3.453,0,0,1,2.065.457l-.361,1.007a2.876,2.876,0,0,0-.745-.324,3.139,3.139,0,0,0-.929-.156,1.378,1.378,0,0,0-.981.336,1.13,1.13,0,0,0-.357.862,1.349,1.349,0,0,0,.128.59,1.248,1.248,0,0,0,.358.446,5.363,5.363,0,0,0,.938.5l.733.33a2.878,2.878,0,0,1,1.286.981,2.611,2.611,0,0,1,.37,1.449,2.026,2.026,0,0,1-.81,1.62,3.307,3.307,0,0,1-2.166.665A3.738,3.738,0,0,1,238.953,89.544Zm12.873.388-.617-1.788h-3.33l-.66,1.788h-1.368l3.635-8.592h.324l3.373,8.592Zm-2.236-6.37L248.2,87.294h2.658Zm11.688,6.486-4.626-6.2v6.081h-1.161V81.456h.489l4.5,5.861V81.456h1.161v8.592Zm5.369-.116h-1.8V81.456q1.723-.058,2.206-.058a4.043,4.043,0,0,1,2.969,1.079,3.855,3.855,0,0,1,1.094,2.873Q271.114,89.932,266.647,89.932Zm-.58-7.435v6.335a7.425,7.425,0,0,0,1.014.058,2.447,2.447,0,0,0,2.017-.911,3.94,3.94,0,0,0,.733-2.531q0-3.009-2.854-3.009Q266.806,82.439,266.067,82.5Zm11.089,3.639v3.8h-1.222v-3.8l-2.884-4.681h1.258l2.231,3.7,2.23-3.7h1.259Z" transform="translate(-162.929 -78.77)" fill="#0f4c81" fill-rule="evenodd"/>
          <path id="Path_3" data-name="Path 3" d="M223.692,92.471a6.861,6.861,0,1,0-7.235-6.851A7.051,7.051,0,0,0,223.692,92.471Z" transform="translate(-163.457 -78.77)" fill="#0f4c81" fill-rule="evenodd"/>
        </g>
      </g>
    </g>
  </g>
  <path id="Path_29" data-name="Path 29" d="M-241.238-11.891h1.742l-.008,6.459a7.428,7.428,0,0,0,.328,2.476,2.258,2.258,0,0,0,.949,1.248,3.173,3.173,0,0,0,1.59.355,2.635,2.635,0,0,0,1.43-.359,2.3,2.3,0,0,0,.879-1.256,7.839,7.839,0,0,0,.309-2.465v-6.459h1.734v6.9a5.547,5.547,0,0,1-1.1,3.717,4.122,4.122,0,0,1-3.3,1.28,4.315,4.315,0,0,1-3.469-1.276,5.611,5.611,0,0,1-1.078-3.744Zm27.97,0V0h-1.766V-11.891Zm37.925,0h2.813a5.641,5.641,0,0,1,4.23,1.454,5.737,5.737,0,0,1,1.41,4.163,7.592,7.592,0,0,1-.687,3.355,4.964,4.964,0,0,1-1.969,2.165A5.856,5.856,0,0,1-172.569,0h-3.648V-11.891Zm2.9,10.641a3.42,3.42,0,0,0,2.738-1.17,5.424,5.424,0,0,0,1-3.6,6.69,6.69,0,0,0-.469-2.742,2.945,2.945,0,0,0-1.4-1.483,5.376,5.376,0,0,0-2.367-.456,6.49,6.49,0,0,0-1.531.151v9.175a3.012,3.012,0,0,0,.918.119Zm28.97-10.641v1.344h-5.1V-6.8h3.742v1.344h-3.742v4.086h5.672V0h-7.414V-11.891ZM-126.512-2.1a4.815,4.815,0,0,0,1.258.512,5.814,5.814,0,0,0,1.547.215,3.271,3.271,0,0,0,1.762-.39,1.349,1.349,0,0,0,.605-1.223,1.52,1.52,0,0,0-.293-.94,2.741,2.741,0,0,0-.809-.7q-.516-.306-1.531-.787a7.287,7.287,0,0,1-2.141-1.483,2.809,2.809,0,0,1-.836-2.018,2.586,2.586,0,0,1,.563-1.723,3.166,3.166,0,0,1,1.453-.967A6.071,6.071,0,0,1-123-11.9a6.716,6.716,0,0,1,1.68.184,3.76,3.76,0,0,1,1.086.434l-.352,1.415a4.464,4.464,0,0,0-1.039-.494,4.7,4.7,0,0,0-1.4-.17,3.887,3.887,0,0,0-1.109.153,1.929,1.929,0,0,0-.836.474,1.081,1.081,0,0,0-.32.795,1.753,1.753,0,0,0,.227.929,2.226,2.226,0,0,0,.7.68,15.872,15.872,0,0,0,1.441.8,16.763,16.763,0,0,1,1.676.952,4.376,4.376,0,0,1,1.145,1.1,2.494,2.494,0,0,1,.469,1.5,3,3,0,0,1-.5,1.758A2.946,2.946,0,0,1-121.512-.34a5.7,5.7,0,0,1-2.078.348A8.965,8.965,0,0,1-125.008-.1,8.691,8.691,0,0,1-126.2-.367a3.074,3.074,0,0,1-.73-.3Zm25.212-9.789V0h-1.766V-11.891Zm26.306,5.828V-.848a1.115,1.115,0,0,0-.332.055q-.176.055-.465.173a11.381,11.381,0,0,1-1.437.455A7.668,7.668,0,0,1-79,.008a5.572,5.572,0,0,1-2.961-.758,4.937,4.937,0,0,1-1.895-2.1,6.84,6.84,0,0,1-.652-3.038,6.927,6.927,0,0,1,.723-3.294,4.855,4.855,0,0,1,1.969-2.038A5.77,5.77,0,0,1-79-11.9a10.478,10.478,0,0,1,1.438.078q.539.078,1.18.234.453.109.711.156l-.078,1.581a5.667,5.667,0,0,0-1.4-.517,9.041,9.041,0,0,0-1.961-.172,3.317,3.317,0,0,0-1.855.533,3.545,3.545,0,0,0-1.277,1.539A5.662,5.662,0,0,0-82.7-6.09,6.9,6.9,0,0,0-82.3-3.636a3.69,3.69,0,0,0,1.234,1.7,3.3,3.3,0,0,0,2.039.621,8.266,8.266,0,0,0,1.363-.112,2.582,2.582,0,0,0,.988-.327v-3h-2.164v-1.3Zm25.955-5.828V0h-1.617l-4.922-7.555L-56.671-9.5l.094,2.063V0h-1.6V-11.891h1.594L-51.5-4.039l.969,1.758-.109-1.977v-7.633Zm24.267,0v1.344h-5.1V-6.8h3.742v1.344h-3.742v4.086H-24.2V0h-7.414V-11.891ZM.5-.875Q.762-.391.98,0H-1a3.156,3.156,0,0,1-.258-.491l-.172-.382Q-1.574-1.186-1.887-2q-.328-.874-.59-1.447a5.039,5.039,0,0,0-.617-1.026,1.664,1.664,0,0,0-.8-.593h-2.07V0H-7.707V-11.891h3.789a4.876,4.876,0,0,1,2.977.8A2.9,2.9,0,0,1,.129-8.61,3.574,3.574,0,0,1-.43-6.54,3.066,3.066,0,0,1-2.02-5.375a2.606,2.606,0,0,1,.656.688,7.528,7.528,0,0,1,.551.949q.246.5.59,1.309Q.262-1.328.5-.875ZM-5.965-6.3q.414.046,1.836.046a2.711,2.711,0,0,0,1.836-.559,2.2,2.2,0,0,0,.641-1.745,2.51,2.51,0,0,0-.254-1.206,1.533,1.533,0,0,0-.8-.689,3.971,3.971,0,0,0-1.465-.223,8.973,8.973,0,0,0-1.789.146Zm43.73-5.594h2.813a5.641,5.641,0,0,1,4.23,1.454,5.737,5.737,0,0,1,1.41,4.163,7.592,7.592,0,0,1-.687,3.355A4.965,4.965,0,0,1,43.562-.754,5.856,5.856,0,0,1,40.538,0H36.89V-11.891Zm2.9,10.641A3.42,3.42,0,0,0,43.4-2.42a5.424,5.424,0,0,0,1-3.6,6.69,6.69,0,0,0-.469-2.742,2.945,2.945,0,0,0-1.4-1.483,5.376,5.376,0,0,0-2.367-.456,6.49,6.49,0,0,0-1.531.151v9.175a3.012,3.012,0,0,0,.918.119Zm28.97-10.641v1.344h-5.1V-6.8h3.742v1.344H64.532v4.086H70.2V0H62.79V-11.891Zm17.572,0,2.813,7.945.523,1.823.539-1.823,2.688-7.945H95.6L91.26,0H89.8L85.354-11.891Zm31.322,0v1.344h-5.1V-6.8h3.742v1.344h-3.742v4.086H119.1V0h-7.414V-11.891Zm18.845,0V-1.367h4.719V0h-6.5V-11.891Zm20.322,6.037a6.929,6.929,0,0,1,.73-3.31,4.9,4.9,0,0,1,1.984-2.049,5.772,5.772,0,0,1,2.816-.686,5.093,5.093,0,0,1,2.707.713,4.778,4.778,0,0,1,1.813,2.019,6.8,6.8,0,0,1,.645,3.045,7.236,7.236,0,0,1-.711,3.348,4.878,4.878,0,0,1-1.957,2.08,5.723,5.723,0,0,1-2.855.7,4.943,4.943,0,0,1-2.727-.751,4.942,4.942,0,0,1-1.809-2.084A6.937,6.937,0,0,1,157.695-5.853Zm8.93-.176a6.3,6.3,0,0,0-.4-2.278,3.769,3.769,0,0,0-1.176-1.65,2.94,2.94,0,0,0-1.879-.613,3.546,3.546,0,0,0-1.883.514,3.538,3.538,0,0,0-1.34,1.558,5.977,5.977,0,0,0-.5,2.575,6.154,6.154,0,0,0,.414,2.282,3.887,3.887,0,0,0,1.227,1.68,3.084,3.084,0,0,0,1.953.632,3.327,3.327,0,0,0,1.895-.541,3.437,3.437,0,0,0,1.246-1.6A6.694,6.694,0,0,0,166.624-6.029Zm19.283-5.861h2.859a4.58,4.58,0,0,1,3.07.925,3.564,3.564,0,0,1,1.078,2.859,4.268,4.268,0,0,1-.52,2.172,3.343,3.343,0,0,1-1.539,1.37,5.9,5.9,0,0,1-2.488.472h-1.539V0h-1.742V-11.891Zm2.359,6.531a4.512,4.512,0,0,0,1.5-.224,1.981,1.981,0,0,0,1.027-.834,3.139,3.139,0,0,0,.391-1.7,2.537,2.537,0,0,0-.684-1.961,2.936,2.936,0,0,0-2.043-.625,6.213,6.213,0,0,0-1.625.168v5.1A11.192,11.192,0,0,0,188.266-5.359Zm27.986-6.531v1.344h-5.1V-6.8h3.742v1.344h-3.742v4.086h5.672V0h-7.414V-11.891ZM241.527-.875q.258.484.477.875h-1.977a3.156,3.156,0,0,1-.258-.491L239.6-.874q-.148-.312-.461-1.131-.328-.874-.59-1.447a5.039,5.039,0,0,0-.617-1.026,1.664,1.664,0,0,0-.8-.593h-2.07V0h-1.742V-11.891h3.789a4.876,4.876,0,0,1,2.977.8,2.9,2.9,0,0,1,1.07,2.48,3.575,3.575,0,0,1-.559,2.07A3.066,3.066,0,0,1,239-5.375a2.606,2.606,0,0,1,.656.688,7.528,7.528,0,0,1,.551.949q.246.5.59,1.309Q241.285-1.328,241.527-.875ZM235.059-6.3q.414.046,1.836.046a2.711,2.711,0,0,0,1.836-.559,2.2,2.2,0,0,0,.641-1.745,2.51,2.51,0,0,0-.254-1.206,1.533,1.533,0,0,0-.8-.689,3.971,3.971,0,0,0-1.465-.223,8.973,8.973,0,0,0-1.789.146Z" transform="translate(244 136.834)" fill="#0f4c81"/>
</svg>
